# xmcd
#
# Track frame offsets: 
#        150
#        19796
#        39387
#        57751
#        74285
#        97948
#        129933
#        136315
#        153398
#        174928
#        200901
#        215071
#        230718
#        240585
#        259526
#        270721
#        281590
#        297367
#        316648
#        332219
#
# Disc length: 4767 seconds
#
# Revision: 1
# Processed by: cddbd v1.5.1PL2 Copyright (c) Steve Scherf et al.
# Submitted via: ExactAudioCopy v0.95a5
#
DISCID=24129d14
DTITLE=MIREK CERNY - Balicek karet
DYEAR=2005
DGENRE=Country
TTITLE0=Balicek karet
TTITLE1=Dik za Vas usmev
TTITLE2=Sto let
TTITLE3=Posledni vecere
TTITLE4=Zatim co ty spis
TTITLE5=Kluk a strom
TTITLE6=Tak vas tu vitam
TTITLE7=Carodejka Chvejka
TTITLE8=Carodej Kolodej
TTITLE9=Vitez
TTITLE10=Pterodaktylus
TTITLE11=Dukaz
TTITLE12=Jenik s Marenkou
TTITLE13=Nula
TTITLE14=Najednou
TTITLE15=Mam rad
TTITLE16=Prazskej kluk
TTITLE17=Stary psi malý deti....
TTITLE18=Jsem tu zas a zas
TTITLE19=Nic absolutne neplati
EXTD=YEAR: 2005
EXTT0=
EXTT1=
EXTT2=
EXTT3=
EXTT4=
EXTT5=
EXTT6=
EXTT7=
EXTT8=
EXTT9=
EXTT10=
EXTT11=
EXTT12=
EXTT13=
EXTT14=
EXTT15=
EXTT16=
EXTT17=
EXTT18=
EXTT19=
PLAYORDER=
